<svg xmlns="http://www.w3.org/2000/svg" viewBox="0 0 200 384">
  <path d="M100 8C88.3 8 80.3 16.2 80 29.3c-.3 10.7 4.6 18.8 12.4 22.4l-1.1 10.2c-11.6 1.4-22.4 4.6-31 10.7-7 5-10 13.1-11.7 24.3l-5.2 31.9c-2.5 15.2-4 31.9-2.8 47.4l2.1 27.7c.6 7.8 4.9 15.8 9.7 16.2 4.3.4 6.3-4.2 5.3-11.3l-3.2-29.5c-1-10 1-21 3.2-32.6l6.7-34.5c1.8-9.2 5.1-16.2 9.8-19.5-2.8 12.5-4.4 24.6-4.2 36.5.2 10.8 1.5 20.5.3 30.3-1.3 10.9-4.7 24.4-4.3 37 .3 10.1 4.7 22.5 7.9 36.1 3 12.9 3.3 27.9 3.3 42.9 0 16.7.5 33.2 1.8 48.8l-3.3 43.9c-3.5 7.9-7.2 13.7-5.8 18.2 5.6 3.1 15.2 3.5 24 1l.8-18.8c1.3-18.1 2.4-38 2.7-58 .4-22.8-.3-43.5.4-61.2.4-9.5 1.3-17.6 2.2-23.2.9 5.6 1.8 13.7 2.2 23.2.7 17.7 0 38.4.4 61.2.3 20 1.4 39.9 2.7 58l.8 18.8c8.8 2.5 18.4 2.1 24-1 1.4-4.5-2.3-10.3-5.8-18.2l-3.3-43.9c1.3-15.6 1.8-32.1 1.8-48.8 0-15 .3-30 3.3-42.9 3.2-13.6 7.6-26 7.9-36.1.4-12.6-3-26.1-4.3-37-1.2-9.8.1-19.5.3-30.3.2-11.9-1.4-24-4.2-36.5 4.7 3.3 8 10.3 9.8 19.5l6.7 34.5c2.2 11.6 4.2 22.6 3.2 32.6l-3.2 29.5c-1 7.1 1 11.7 5.3 11.3 4.8-.4 9.1-8.4 9.7-16.2l2.1-27.7c1.2-15.5-.3-32.2-2.8-47.4l-5.2-31.9c-1.7-11.2-4.7-19.3-11.7-24.3-8.6-6.1-19.4-9.3-31-10.7l-1.1-10.2c7.8-3.6 12.7-11.7 12.4-22.4C119.7 16.2 111.7 8 100 8Z" fill="#CFCBBE" stroke="#B7B3A6" stroke-width="1.15" stroke-linejoin="round"/>
  <g fill="none" stroke="#B7B3A6" stroke-linecap="round" opacity=".6">
    <path d="M90 67.5c3 3.3 6.3 5 10 5s7-1.7 10-5M100 73v105" stroke-width="1.2"/>
    <path d="M96 91c-10.7.6-18.8 5.7-23.4 14m31.4-14c10.7.6 18.8 5.7 23.4 14M96 181c-8.1 1.8-14.1 7.3-16.5 16.8m24.5-16.8c8.1 1.8 14.1 7.3 16.5 16.8M100 179v31" stroke-width="1"/>
    <path d="M75.5 329c4.2 3.5 8.3 3.5 12.4 0m24.2 0c4.1 3.5 8.2 3.5 12.4 0" stroke-width=".9"/>
  </g>
</svg>
